<?xml version="1.0" standalone="no"?>
<!DOCTYPE svg PUBLIC "-//W3C//DTD SVG 20010904//EN"
 "http://www.w3.org/TR/2001/REC-SVG-20010904/DTD/svg10.dtd">
<svg version="1.0" xmlns="http://www.w3.org/2000/svg"
 width="72.000000pt" height="51.000000pt" viewBox="0 0 72.000000 51.000000"
 preserveAspectRatio="xMidYMid meet">

<g transform="translate(0.000000,51.000000) scale(0.100000,-0.100000)"
fill="#000000" stroke="none">
<path d="M321 480 c-18 -18 -40 -30 -56 -30 l-26 0 28 -37 c15 -21 28 -39 29
-41 6 -9 44 21 44 33 0 8 5 15 10 15 27 0 -17 -44 -61 -63 l-49 -21 0 -88 c0
-65 4 -95 16 -113 18 -28 55 -33 74 -10 10 13 10 19 -5 34 -16 19 -16 19 4 14
15 -4 21 -1 21 11 0 9 5 16 10 16 6 0 10 -7 10 -16 0 -11 6 -15 20 -11 23 6
27 -8 5 -17 -24 -9 0 -46 30 -46 13 0 27 -5 30 -10 4 -7 -2 -9 -19 -4 -14 3
-26 2 -26 -3 0 -15 103 -33 113 -19 5 6 7 -1 4 -17 -2 -16 -1 -25 3 -20 5 4
10 17 12 28 2 16 -3 20 -29 20 -42 0 -48 9 -33 45 16 38 26 38 73 -1 l37 -30
0 127 0 127 -22 -20 c-13 -11 -33 -26 -45 -32 -21 -11 -23 -10 -23 18 0 30
-15 51 -22 30 -2 -7 -15 -6 -38 5 -19 9 -27 14 -17 11 10 -3 15 -1 12 5 -3 5
6 26 21 45 l26 35 -53 -1 c-30 -1 -46 -3 -36 -6 22 -6 22 -16 -3 -38 -11 -10
-17 -22 -14 -26 3 -5 0 -9 -6 -9 -8 0 -9 7 -5 18 19 47 19 55 -3 50 -12 -4
-20 -2 -17 2 3 5 -1 11 -7 14 -7 3 -1 3 13 0 21 -4 27 -1 32 15 3 14 -1 25
-13 31 -15 8 -25 4 -49 -20z m36 -126 c-3 -3 -12 -4 -19 -1 -8 3 -5 6 6 6 11
1 17 -2 13 -5z m28 -4 c3 -5 1 -10 -4 -10 -6 0 -11 5 -11 10 0 6 2 10 4 10 3
0 8 -4 11 -10z m28 -51 c49 -40 40 -50 -13 -14 l-40 28 -40 -28 c-22 -15 -43
-26 -46 -23 -8 8 68 68 86 68 8 0 32 -14 53 -31z m0 -40 c49 -40 41 -49 -12
-13 l-41 27 -41 -27 c-22 -15 -43 -25 -45 -23 -8 7 69 67 86 67 8 0 32 -14 53
-31z m74 -61 c-2 -18 -4 -4 -4 32 0 36 2 50 4 33 2 -18 2 -48 0 -65z m-42 -9
c11 -16 -8 -10 -47 17 l-38 27 -40 -28 c-22 -15 -43 -25 -47 -21 -7 7 -10 5
46 44 l44 32 38 -31 c21 -17 41 -35 44 -40z"/>
<path d="M130 224 l0 -125 37 30 c21 17 43 31 50 31 9 0 13 18 12 63 l0 62
-50 32 -49 31 0 -124z"/>
<path d="M344 113 c-4 -15 -13 -19 -37 -18 -18 1 -43 -2 -57 -8 -14 -6 -33
-11 -42 -12 -10 -2 -21 -3 -24 -4 -4 0 0 -8 7 -18 8 -9 13 -19 12 -22 -1 -3 1
-8 3 -10 2 -2 4 7 4 21 0 13 6 25 13 26 6 1 36 5 66 8 44 6 53 4 49 -7 -4 -10
3 -14 21 -14 25 0 27 2 21 34 -6 39 -29 53 -36 24z"/>
<path d="M266 36 l-27 -36 121 0 121 0 -22 33 c-12 17 -24 34 -27 37 -2 3 -8
-2 -13 -11 -11 -21 -105 -21 -118 -1 -6 10 -15 4 -35 -22z"/>
<path d="M556 39 c-18 -22 -22 -39 -5 -22 6 6 18 9 27 6 9 -4 13 -2 9 4 -4 6
-2 13 5 15 8 3 7 6 -4 10 -8 4 -22 -2 -32 -13z"/>
</g>
</svg>
